<svg xmlns="http://www.w3.org/2000/svg" version="1.1" xmlns:xlink="http://www.w3.org/1999/xlink" xmlns:svgjs="http://svgjs.com/svgjs" width="1980" height="560" preserveAspectRatio="none" viewBox="0 0 1980 560"><g mask="url(&quot;#SvgjsMask1011&quot;)" fill="none"><rect width="1980" height="560" x="0" y="0" fill="rgba(18, 50, 78, 1)"></rect><path d="M0,888.441C163.687,861.02,239.129,672.902,358.035,557.114C450.526,467.049,562.035,398.441,621.086,283.64C681.931,165.35,692.218,32.884,696.079,-100.081C700.642,-257.224,726.811,-424.798,645.567,-559.387C559.628,-701.754,411.995,-818.312,247.558,-843.104C87.549,-867.228,-58.877,-763.091,-201.762,-687.139C-320.014,-624.28,-423.729,-544.313,-508.925,-440.986C-592.413,-339.73,-635.891,-219.68,-686.895,-98.761C-755.874,64.77,-912.801,223.41,-860.743,393.088C-809.626,559.701,-595.478,604.614,-444.428,691.543C-301.09,774.033,-163.107,915.765,0,888.441" fill="#0c2133"></path><path d="M1980 1189.961C2095.853 1183.341 2157.672 1051.051 2256.619 990.427 2358.645 927.9159999999999 2507.834 931.8140000000001 2569.0879999999997 829.028 2630.555 725.885 2579.645 595.087 2563.089 476.164 2546.457 356.69399999999996 2561.523 214.57999999999998 2472.252 133.461 2382.923 52.28899999999999 2241.046 96.87700000000001 2122.241 75.57299999999998 2019.26 57.105999999999995 1924.121 2.586999999999989 1820.437 16.576999999999998 1707.161 31.861999999999966 1595.136 75.519 1515.434 157.45100000000002 1433.574 241.601 1387.83 356.368 1376.2469999999998 473.193 1364.946 587.174 1395.905 701.2239999999999 1451.594 801.315 1504.546 896.4870000000001 1594.554 958.717 1682.289 1023.2470000000001 1775.806 1092.029 1864.101 1196.5839999999998 1980 1189.961" fill="#184469"></path></g><defs><mask id="SvgjsMask1011"><rect width="1980" height="560" fill="#ffffff"></rect></mask></defs></svg>