<svg height="12" viewBox="0 0 11 12" width="11" xmlns="http://www.w3.org/2000/svg"><path d="m10.6552736 9.984375-1.25859365 1.25625c-.2296878.2320314-.6046878.2320314-.8367186 0l-3.1453128-3.1429686-3.1429686 3.1429686c-.2320314.2320314-.609375.2320314-.8390628 0l-1.2585936-1.25625c-.2320314-.2320314-.2320314-.6070314 0-.8390622l3.1429686-3.1453128-3.1429686-3.1429686c-.2296872-.234375-.2296872-.6117186 0-.8390628l1.2585936-1.2585936c.2296878-.2320314.6070314-.2320314.8390628 0l3.1429686 3.1453128 3.1453128-3.1453128c.2320308-.2320314.609375-.2320314.8367186 0l1.25859365 1.25625c.2320314.2320314.2320314.609375.0023436.8414064l-3.14531225 3.1429686 3.14296865 3.1453128c.2320314.2320308.2320314.6070308 0 .8390622z" fill="#D63163"/></svg>